<?xml version="1.0" encoding="utf-8"?>
<!-- Generator: Adobe Illustrator 22.0.1, SVG Export Plug-In . SVG Version: 6.00 Build 0)  -->
<svg version="1.1" id="Capa_1" xmlns="http://www.w3.org/2000/svg" xmlns:xlink="http://www.w3.org/1999/xlink" x="0px" y="0px"
	 viewBox="0 0 100 100" style="enable-background:new 0 0 100 100;" xml:space="preserve">
<style type="text/css">
	.st0{filter:url(#Adobe_OpacityMaskFilter);}
	.st1{fill:#FFFFFF;}
	.st2{mask:url(#mask-2_1_);fill:url(#Fill-8_1_);}
	.st3{filter:url(#Adobe_OpacityMaskFilter_1_);}
	.st4{mask:url(#mask-2_2_);fill:#FFFFFF;}
	.st5{filter:url(#Adobe_OpacityMaskFilter_2_);}
	.st6{mask:url(#mask-5_1_);fill:url(#Fill-18_1_);}
	.st7{filter:url(#Adobe_OpacityMaskFilter_3_);}
	.st8{mask:url(#mask-5_2_);fill:#FFFFFF;}
	.st9{filter:url(#Adobe_OpacityMaskFilter_4_);}
	.st10{mask:url(#mask-8_1_);fill:url(#Fill-59_1_);}
	.st11{display:none;}
	.st12{filter:url(#Adobe_OpacityMaskFilter_5_);}
	.st13{mask:url(#mask-11_1_);fill:url(#Fill-64_1_);}
	.st14{filter:url(#Adobe_OpacityMaskFilter_6_);}
	.st15{display:none;mask:url(#mask-11_2_);fill:#FFFFFF;}
	.st16{filter:url(#Adobe_OpacityMaskFilter_7_);}
	.st17{mask:url(#mask-14_1_);fill:url(#Fill-69_1_);}
	.st18{filter:url(#Adobe_OpacityMaskFilter_8_);}
	.st19{display:none;mask:url(#mask-14_2_);fill:#FFFFFF;}
	.st20{filter:url(#Adobe_OpacityMaskFilter_9_);}
	.st21{mask:url(#mask-17_1_);fill:url(#Fill-74_1_);}
</style>
<title>element_cinta2</title>
<desc>Created with Sketch.</desc>
<g id="GIFOS">
	<g id="_x30_0-UI-Kit" transform="translate(-1107.000000, -2135.000000)">
		<g id="element_cinta2" transform="translate(1107.502000, 2135.000000)">
			<g id="Clip-9">
			</g>
			<defs>
				<filter id="Adobe_OpacityMaskFilter" filterUnits="userSpaceOnUse" x="0" y="0" width="99.3" height="99.3">
					<feColorMatrix  type="matrix" values="1 0 0 0 0  0 1 0 0 0  0 0 1 0 0  0 0 0 1 0"/>
				</filter>
			</defs>
			<mask maskUnits="userSpaceOnUse" x="0" y="0" width="99.3" height="99.3" id="mask-2_1_">
				<g class="st0">
					<path id="path-1_1_" class="st1" d="M49.6,0C22.3,0,0,22.3,0,49.6l0,0C0,77,22.3,99.3,49.6,99.3l0,0C77,99.3,99.3,77,99.3,49.6
						l0,0C99.3,22.3,77,0,49.6,0z M2.2,49.6c0-26.2,21.3-47.5,47.5-47.5l0,0c26.2,0,47.5,21.3,47.5,47.5l0,0
						c0,26.2-21.3,47.5-47.5,47.5l0,0C23.5,97.1,2.2,75.8,2.2,49.6L2.2,49.6z"/>
				</g>
			</mask>
			
				<linearGradient id="Fill-8_1_" gradientUnits="userSpaceOnUse" x1="-3059.375" y1="3167.8645" x2="-3058.375" y2="3167.8645" gradientTransform="matrix(99.271 0 0 -99.269 303707.2188 314520.375)">
				<stop  offset="0" style="stop-color:#7C72FF"/>
				<stop  offset="1" style="stop-color:#6D64F4"/>
			</linearGradient>
			<path id="Fill-8" class="st2" d="M49.6,0C22.3,0,0,22.3,0,49.6l0,0C0,77,22.3,99.3,49.6,99.3l0,0C77,99.3,99.3,77,99.3,49.6l0,0
				C99.3,22.3,77,0,49.6,0z M2.2,49.6c0-26.2,21.3-47.5,47.5-47.5l0,0c26.2,0,47.5,21.3,47.5,47.5l0,0c0,26.2-21.3,47.5-47.5,47.5
				l0,0C23.5,97.1,2.2,75.8,2.2,49.6L2.2,49.6z"/>
			<defs>
				<filter id="Adobe_OpacityMaskFilter_1_" filterUnits="userSpaceOnUse" x="41" y="41" width="17.3" height="17.3">
					<feColorMatrix  type="matrix" values="1 0 0 0 0  0 1 0 0 0  0 0 1 0 0  0 0 0 1 0"/>
				</filter>
			</defs>
			<mask maskUnits="userSpaceOnUse" x="41" y="41" width="17.3" height="17.3" id="mask-2_2_">
				<g class="st3">
					<path id="path-1_2_" class="st1" d="M49.6,0C22.3,0,0,22.3,0,49.6l0,0C0,77,22.3,99.3,49.6,99.3l0,0C77,99.3,99.3,77,99.3,49.6
						l0,0C99.3,22.3,77,0,49.6,0z M2.2,49.6c0-26.2,21.3-47.5,47.5-47.5l0,0c26.2,0,47.5,21.3,47.5,47.5l0,0
						c0,26.2-21.3,47.5-47.5,47.5l0,0C23.5,97.1,2.2,75.8,2.2,49.6L2.2,49.6z"/>
				</g>
			</mask>
			<path id="Fill-16" class="st4" d="M58.3,49.6c0,4.8-3.9,8.6-8.6,8.6c-4.8,0-8.6-3.9-8.6-8.6c0-4.8,3.9-8.6,8.6-8.6
				C54.4,41,58.3,44.9,58.3,49.6"/>
			<g id="Clip-19">
			</g>
			<defs>
				<filter id="Adobe_OpacityMaskFilter_2_" filterUnits="userSpaceOnUse" x="40.5" y="40.5" width="18.2" height="18.2">
					<feColorMatrix  type="matrix" values="1 0 0 0 0  0 1 0 0 0  0 0 1 0 0  0 0 0 1 0"/>
				</filter>
			</defs>
			<mask maskUnits="userSpaceOnUse" x="40.5" y="40.5" width="18.2" height="18.2" id="mask-5_1_">
				<g class="st5">
					<path id="path-4_1_" class="st1" d="M40.5,49.6c0,5,4.1,9.1,9.1,9.1l0,0c5,0,9.1-4.1,9.1-9.1l0,0c0-5-4.1-9.1-9.1-9.1l0,0
						C44.6,40.5,40.5,44.6,40.5,49.6 M41.5,49.6c0-4.5,3.7-8.2,8.2-8.2l0,0c4.5,0,8.2,3.7,8.2,8.2l0,0c0,4.5-3.7,8.2-8.2,8.2l0,0
						C45.1,57.8,41.5,54.1,41.5,49.6"/>
				</g>
			</mask>
			
				<linearGradient id="Fill-18_1_" gradientUnits="userSpaceOnUse" x1="-2920.8708" y1="3028.9575" x2="-2919.8708" y2="3028.9575" gradientTransform="matrix(18.216 0 0 -18.216 53247.1094 55225.1211)">
				<stop  offset="0" style="stop-color:#7C72FF"/>
				<stop  offset="1" style="stop-color:#6D64F4"/>
			</linearGradient>
			<path id="Fill-18" class="st6" d="M40.5,49.6c0,5,4.1,9.1,9.1,9.1l0,0c5,0,9.1-4.1,9.1-9.1l0,0c0-5-4.1-9.1-9.1-9.1l0,0
				C44.6,40.5,40.5,44.6,40.5,49.6 M41.5,49.6c0-4.5,3.7-8.2,8.2-8.2l0,0c4.5,0,8.2,3.7,8.2,8.2l0,0c0,4.5-3.7,8.2-8.2,8.2l0,0
				C45.1,57.8,41.5,54.1,41.5,49.6"/>
			<defs>
				<filter id="Adobe_OpacityMaskFilter_3_" filterUnits="userSpaceOnUse" x="55.8" y="12.1" width="31.4" height="31.4">
					<feColorMatrix  type="matrix" values="1 0 0 0 0  0 1 0 0 0  0 0 1 0 0  0 0 0 1 0"/>
				</filter>
			</defs>
			<mask maskUnits="userSpaceOnUse" x="55.8" y="12.1" width="31.4" height="31.4" id="mask-5_2_">
				<g class="st7">
					<path id="path-4_2_" class="st1" d="M40.5,49.6c0,5,4.1,9.1,9.1,9.1l0,0c5,0,9.1-4.1,9.1-9.1l0,0c0-5-4.1-9.1-9.1-9.1l0,0
						C44.6,40.5,40.5,44.6,40.5,49.6 M41.5,49.6c0-4.5,3.7-8.2,8.2-8.2l0,0c4.5,0,8.2,3.7,8.2,8.2l0,0c0,4.5-3.7,8.2-8.2,8.2l0,0
						C45.1,57.8,41.5,54.1,41.5,49.6"/>
				</g>
			</mask>
			<path id="Fill-57" class="st8" d="M55.8,12.1v23.8c3.4,1.5,6.1,4.2,7.6,7.6h23.8C84.6,27.4,71.9,14.7,55.8,12.1"/>
			<g id="Clip-60">
			</g>
			<defs>
				<filter id="Adobe_OpacityMaskFilter_4_" filterUnits="userSpaceOnUse" x="55" y="11.3" width="33" height="33">
					<feColorMatrix  type="matrix" values="1 0 0 0 0  0 1 0 0 0  0 0 1 0 0  0 0 0 1 0"/>
				</filter>
			</defs>
			<mask maskUnits="userSpaceOnUse" x="55" y="11.3" width="33" height="33" id="mask-8_1_">
				<g class="st9">
					<path id="path-7_1_" class="st1" d="M55.2,11.5c-0.2,0.2-0.3,0.4-0.3,0.6l0,0v23.8c0,0.3,0.2,0.6,0.5,0.7l0,0
						c3.2,1.4,5.8,4,7.2,7.2l0,0c0.1,0.3,0.4,0.5,0.7,0.5l0,0h23.8c0.2,0,0.5-0.1,0.6-0.3l0,0c0.2-0.2,0.2-0.4,0.2-0.7l0,0
						c-2.6-16.5-15.5-29.4-32.1-32.1l0,0c0,0-0.1,0-0.1,0l0,0C55.6,11.3,55.4,11.4,55.2,11.5 M56.6,35.4V13.1
						c15.1,2.8,26.8,14.6,29.6,29.6l0,0H63.9C62.3,39.5,59.8,36.9,56.6,35.4"/>
				</g>
			</mask>
			
				<linearGradient id="Fill-59_1_" gradientUnits="userSpaceOnUse" x1="-2996.9268" y1="3105.2305" x2="-2995.9268" y2="3105.2305" gradientTransform="matrix(33.0216 0 0 -33.02 99018.3203 102562.5156)">
				<stop  offset="0" style="stop-color:#7C72FF"/>
				<stop  offset="1" style="stop-color:#6D64F4"/>
			</linearGradient>
			<path id="Fill-59" class="st10" d="M55.2,11.5c-0.2,0.2-0.3,0.4-0.3,0.6l0,0v23.8c0,0.3,0.2,0.6,0.5,0.7l0,0
				c3.2,1.4,5.8,4,7.2,7.2l0,0c0.1,0.3,0.4,0.5,0.7,0.5l0,0h23.8c0.2,0,0.5-0.1,0.6-0.3l0,0c0.2-0.2,0.2-0.4,0.2-0.7l0,0
				c-2.6-16.5-15.5-29.4-32.1-32.1l0,0c0,0-0.1,0-0.1,0l0,0C55.6,11.3,55.4,11.4,55.2,11.5 M56.6,35.4V13.1
				c15.1,2.8,26.8,14.6,29.6,29.6l0,0H63.9C62.3,39.5,59.8,36.9,56.6,35.4"/>
			<g id="Clip-65" class="st11">
			</g>
			<defs>
				<filter id="Adobe_OpacityMaskFilter_5_" filterUnits="userSpaceOnUse" x="11.3" y="11.3" width="33" height="33">
					<feColorMatrix  type="matrix" values="1 0 0 0 0  0 1 0 0 0  0 0 1 0 0  0 0 0 1 0"/>
				</filter>
			</defs>
			<mask maskUnits="userSpaceOnUse" x="11.3" y="11.3" width="33" height="33" id="mask-11_1_">
				<g class="st12">
					<path id="path-10_1_" class="st1" d="M43.4,11.3c-16.5,2.6-29.4,15.5-32.1,32.1l0,0c0,0.2,0,0.5,0.2,0.7l0,0
						c0.2,0.2,0.4,0.3,0.6,0.3l0,0h23.8c0.3,0,0.6-0.2,0.7-0.5l0,0c1.4-3.2,4-5.8,7.2-7.2l0,0c0.3-0.1,0.5-0.4,0.5-0.7l0,0V12.1
						c0-0.2-0.1-0.5-0.3-0.6l0,0c-0.1-0.1-0.3-0.2-0.5-0.2l0,0C43.5,11.3,43.4,11.3,43.4,11.3 M42.7,13.1v22.3
						c-3.2,1.5-5.8,4.1-7.3,7.3l0,0H13.1C15.9,27.6,27.6,15.9,42.7,13.1"/>
				</g>
			</mask>
			
				<linearGradient id="Fill-64_1_" gradientUnits="userSpaceOnUse" x1="-2996.9307" y1="3105.2305" x2="-2995.9307" y2="3105.2305" gradientTransform="matrix(33.023 0 0 -33.02 98978.8594 102562.5156)">
				<stop  offset="0" style="stop-color:#7C72FF"/>
				<stop  offset="1" style="stop-color:#6D64F4"/>
			</linearGradient>
			<path id="Fill-64" class="st13" d="M43.4,11.3c-16.5,2.6-29.4,15.5-32.1,32.1l0,0c0,0.2,0,0.5,0.2,0.7l0,0
				c0.2,0.2,0.4,0.3,0.6,0.3l0,0h23.8c0.3,0,0.6-0.2,0.7-0.5l0,0c1.4-3.2,4-5.8,7.2-7.2l0,0c0.3-0.1,0.5-0.4,0.5-0.7l0,0V12.1
				c0-0.2-0.1-0.5-0.3-0.6l0,0c-0.1-0.1-0.3-0.2-0.5-0.2l0,0C43.5,11.3,43.4,11.3,43.4,11.3 M42.7,13.1v22.3
				c-3.2,1.5-5.8,4.1-7.3,7.3l0,0H13.1C15.9,27.6,27.6,15.9,42.7,13.1"/>
			<defs>
				<filter id="Adobe_OpacityMaskFilter_6_" filterUnits="userSpaceOnUse" x="12.1" y="55.8" width="31.4" height="31.4">
					<feColorMatrix  type="matrix" values="1 0 0 0 0  0 1 0 0 0  0 0 1 0 0  0 0 0 1 0"/>
				</filter>
			</defs>
			<mask maskUnits="userSpaceOnUse" x="12.1" y="55.8" width="31.4" height="31.4" id="mask-11_2_">
				<g class="st14">
					<path id="path-10_2_" class="st1" d="M43.4,11.3c-16.5,2.6-29.4,15.5-32.1,32.1l0,0c0,0.2,0,0.5,0.2,0.7l0,0
						c0.2,0.2,0.4,0.3,0.6,0.3l0,0h23.8c0.3,0,0.6-0.2,0.7-0.5l0,0c1.4-3.2,4-5.8,7.2-7.2l0,0c0.3-0.1,0.5-0.4,0.5-0.7l0,0V12.1
						c0-0.2-0.1-0.5-0.3-0.6l0,0c-0.1-0.1-0.3-0.2-0.5-0.2l0,0C43.5,11.3,43.4,11.3,43.4,11.3 M42.7,13.1v22.3
						c-3.2,1.5-5.8,4.1-7.3,7.3l0,0H13.1C15.9,27.6,27.6,15.9,42.7,13.1"/>
				</g>
			</mask>
			<path id="Fill-67" class="st15" d="M35.9,55.8H12.1c2.6,16.1,15.3,28.8,31.4,31.4V63.4C40.1,61.9,37.4,59.2,35.9,55.8"/>
			<g id="Clip-70" class="st11">
			</g>
			<defs>
				<filter id="Adobe_OpacityMaskFilter_7_" filterUnits="userSpaceOnUse" x="11.3" y="55" width="33" height="33">
					<feColorMatrix  type="matrix" values="1 0 0 0 0  0 1 0 0 0  0 0 1 0 0  0 0 0 1 0"/>
				</filter>
			</defs>
			<mask maskUnits="userSpaceOnUse" x="11.3" y="55" width="33" height="33" id="mask-14_1_">
				<g class="st16">
					<path id="path-13_1_" class="st1" d="M12.1,55c-0.2,0-0.5,0.1-0.6,0.3l0,0c-0.2,0.2-0.2,0.4-0.2,0.7l0,0
						C13.9,72.4,26.8,85.3,43.4,88l0,0c0,0,0.1,0,0.1,0l0,0c0.2,0,0.4-0.1,0.5-0.2l0,0c0.2-0.2,0.3-0.4,0.3-0.6l0,0V63.4
						c0-0.3-0.2-0.6-0.5-0.7l0,0c-3.2-1.4-5.8-4-7.2-7.2l0,0c-0.1-0.3-0.4-0.5-0.7-0.5l0,0H12.1z M13.1,56.6h22.3
						c1.5,3.2,4.1,5.8,7.3,7.3l0,0v22.3C27.6,83.4,15.9,71.7,13.1,56.6L13.1,56.6z"/>
				</g>
			</mask>
			
				<linearGradient id="Fill-69_1_" gradientUnits="userSpaceOnUse" x1="-2996.9307" y1="3105.239" x2="-2995.9307" y2="3105.239" gradientTransform="matrix(33.023 0 0 -33.023 98978.8594 102615.7578)">
				<stop  offset="0" style="stop-color:#7C72FF"/>
				<stop  offset="1" style="stop-color:#6D64F4"/>
			</linearGradient>
			<path id="Fill-69" class="st17" d="M12.1,55c-0.2,0-0.5,0.1-0.6,0.3l0,0c-0.2,0.2-0.2,0.4-0.2,0.7l0,0
				C13.9,72.4,26.8,85.3,43.4,88l0,0c0,0,0.1,0,0.1,0l0,0c0.2,0,0.4-0.1,0.5-0.2l0,0c0.2-0.2,0.3-0.4,0.3-0.6l0,0V63.4
				c0-0.3-0.2-0.6-0.5-0.7l0,0c-3.2-1.4-5.8-4-7.2-7.2l0,0c-0.1-0.3-0.4-0.5-0.7-0.5l0,0H12.1z M13.1,56.6h22.3
				c1.5,3.2,4.1,5.8,7.3,7.3l0,0v22.3C27.6,83.4,15.9,71.7,13.1,56.6L13.1,56.6z"/>
			<defs>
				<filter id="Adobe_OpacityMaskFilter_8_" filterUnits="userSpaceOnUse" x="55.8" y="55.8" width="31.4" height="31.4">
					<feColorMatrix  type="matrix" values="1 0 0 0 0  0 1 0 0 0  0 0 1 0 0  0 0 0 1 0"/>
				</filter>
			</defs>
			<mask maskUnits="userSpaceOnUse" x="55.8" y="55.8" width="31.4" height="31.4" id="mask-14_2_">
				<g class="st18">
					<path id="path-13_2_" class="st1" d="M12.1,55c-0.2,0-0.5,0.1-0.6,0.3l0,0c-0.2,0.2-0.2,0.4-0.2,0.7l0,0
						C13.9,72.4,26.8,85.3,43.4,88l0,0c0,0,0.1,0,0.1,0l0,0c0.2,0,0.4-0.1,0.5-0.2l0,0c0.2-0.2,0.3-0.4,0.3-0.6l0,0V63.4
						c0-0.3-0.2-0.6-0.5-0.7l0,0c-3.2-1.4-5.8-4-7.2-7.2l0,0c-0.1-0.3-0.4-0.5-0.7-0.5l0,0H12.1z M13.1,56.6h22.3
						c1.5,3.2,4.1,5.8,7.3,7.3l0,0v22.3C27.6,83.4,15.9,71.7,13.1,56.6L13.1,56.6z"/>
				</g>
			</mask>
			<path id="Fill-72" class="st19" d="M55.8,87.2c16.1-2.6,28.8-15.3,31.4-31.4H63.4c-1.5,3.4-4.2,6.1-7.6,7.6V87.2z"/>
			<g id="Clip-75" class="st11">
			</g>
			<defs>
				<filter id="Adobe_OpacityMaskFilter_9_" filterUnits="userSpaceOnUse" x="55" y="55" width="33" height="33">
					<feColorMatrix  type="matrix" values="1 0 0 0 0  0 1 0 0 0  0 0 1 0 0  0 0 0 1 0"/>
				</filter>
			</defs>
			<mask maskUnits="userSpaceOnUse" x="55" y="55" width="33" height="33" id="mask-17_1_">
				<g class="st20">
					<path id="path-16_1_" class="st1" d="M63.4,55c-0.3,0-0.6,0.2-0.7,0.5l0,0c-1.4,3.2-4,5.8-7.2,7.2l0,0
						c-0.3,0.1-0.5,0.4-0.5,0.7l0,0v23.8c0,0.2,0.1,0.5,0.3,0.6l0,0c0.1,0.1,0.3,0.2,0.5,0.2l0,0c0,0,0.1,0,0.1,0l0,0
						C72.4,85.3,85.3,72.4,88,55.9l0,0c0-0.2,0-0.5-0.2-0.7l0,0c-0.2-0.2-0.4-0.3-0.6-0.3l0,0H63.4z M56.6,63.9
						c3.2-1.5,5.8-4.1,7.3-7.3l0,0h22.3c-2.8,15.1-14.6,26.8-29.6,29.6l0,0V63.9z"/>
				</g>
			</mask>
			
				<linearGradient id="Fill-74_1_" gradientUnits="userSpaceOnUse" x1="-2996.9268" y1="3105.239" x2="-2995.9268" y2="3105.239" gradientTransform="matrix(33.0216 0 0 -33.023 99018.3203 102615.7578)">
				<stop  offset="0" style="stop-color:#7C72FF"/>
				<stop  offset="1" style="stop-color:#6D64F4"/>
			</linearGradient>
			<path id="Fill-74" class="st21" d="M63.4,55c-0.3,0-0.6,0.2-0.7,0.5l0,0c-1.4,3.2-4,5.8-7.2,7.2l0,0c-0.3,0.1-0.5,0.4-0.5,0.7
				l0,0v23.8c0,0.2,0.1,0.5,0.3,0.6l0,0c0.1,0.1,0.3,0.2,0.5,0.2l0,0c0,0,0.1,0,0.1,0l0,0C72.4,85.3,85.3,72.4,88,55.9l0,0
				c0-0.2,0-0.5-0.2-0.7l0,0c-0.2-0.2-0.4-0.3-0.6-0.3l0,0H63.4z M56.6,63.9c3.2-1.5,5.8-4.1,7.3-7.3l0,0h22.3
				c-2.8,15.1-14.6,26.8-29.6,29.6l0,0V63.9z"/>
		</g>
	</g>
</g>
</svg>
