<?xml version="1.0" encoding="utf-8"?>
<!-- Generator: Adobe Illustrator 22.0.1, SVG Export Plug-In . SVG Version: 6.00 Build 0)  -->
<svg version="1.1" id="Capa_1" xmlns="http://www.w3.org/2000/svg" xmlns:xlink="http://www.w3.org/1999/xlink" x="0px" y="0px"
	 viewBox="0 0 72 73" style="enable-background:new 0 0 72 73;" xml:space="preserve">
<style type="text/css">
	.st0{display:none;}
	.st1{display:none;fill:#FFFFFF;}
	.st2{fill:url(#Fill-13_1_);}
	.st3{fill:url(#Fill-79_1_);}
	.st4{fill:url(#Fill-84_1_);}
	.st5{fill:url(#Fill-89_1_);}
	.st6{fill:url(#Fill-94_1_);}
</style>
<g id="Capa_2" class="st0">
</g>
<title>element_cinta1</title>
<desc>Created with Sketch.</desc>
<g id="GIFOS">
	<g id="_x30_0-UI-Kit" transform="translate(-1031.000000, -2162.000000)">
		<g id="element_cinta1" transform="translate(1031.000000, 2162.621000)">
			<path id="Fill-11" class="st1" d="M36,71.1c-19.2,0-34.7-15.6-34.7-34.8S16.9,1.6,36,1.6s34.7,15.6,34.7,34.7
				C70.8,55.5,55.2,71.1,36,71.1z"/>
			<g id="Clip-14" class="st0">
			</g>
			
				<linearGradient id="Fill-13_1_" gradientUnits="userSpaceOnUse" x1="-6121.354" y1="87.3758" x2="-6120.3545" y2="87.3758" gradientTransform="matrix(71.65 0 0 71.648 438595.2188 -6224.0024)">
				<stop  offset="0" style="stop-color:#7C72FF"/>
				<stop  offset="1" style="stop-color:#6D64F4"/>
			</linearGradient>
			<path id="Fill-13" class="st2" d="M0.2,36.3c0,19.8,16.1,35.8,35.8,35.8l0,0c19.8,0,35.8-16.1,35.8-35.8l0,0
				C71.9,16.6,55.8,0.5,36,0.5l0,0C16.3,0.5,0.2,16.6,0.2,36.3 M2.4,36.3c0-18.6,15.1-33.7,33.7-33.7l0,0
				c18.6,0,33.7,15.1,33.7,33.7l0,0C69.8,54.9,54.7,70,36.1,70l0,0C17.5,70,2.4,54.9,2.4,36.3"/>
			<path id="Fill-77" class="st1" d="M40.7,10v16.8c2.4,1.1,4.3,3,5.4,5.4h16.8C61.1,20.8,52,11.8,40.7,10"/>
			<g id="Clip-80" class="st0">
			</g>
			
				<linearGradient id="Fill-79_1_" gradientUnits="userSpaceOnUse" x1="-5942.0718" y1="267.1232" x2="-5941.0718" y2="267.1232" gradientTransform="matrix(23.3454 0 0 23.345 138760.0938 -6215.0913)">
				<stop  offset="0" style="stop-color:#7C72FF"/>
				<stop  offset="1" style="stop-color:#6D64F4"/>
			</linearGradient>
			<path id="Fill-79" class="st3" d="M40.3,9.5c-0.1,0.1-0.2,0.3-0.2,0.4l0,0v16.8c0,0.2,0.1,0.4,0.3,0.5l0,0c2.3,1,4.1,2.8,5.1,5.1
				l0,0c0.1,0.2,0.3,0.3,0.5,0.3l0,0h16.8c0.2,0,0.3-0.1,0.4-0.2l0,0c0.1-0.1,0.2-0.3,0.1-0.5l0,0c-1.9-11.7-11-20.8-22.7-22.7l0,0
				h-0.1l0,0C40.5,9.4,40.4,9.5,40.3,9.5 M41.2,26.4V10.7c10.7,2,19,10.3,21,21l0,0H46.4C45.3,29.3,43.5,27.5,41.2,26.4"/>
			<path id="Fill-82" class="st1" d="M32,10C20.6,11.8,11.6,20.8,9.8,32.2h16.8c1.1-2.4,3-4.3,5.4-5.4V10z"/>
			<g id="Clip-85" class="st0">
			</g>
			
				<linearGradient id="Fill-84_1_" gradientUnits="userSpaceOnUse" x1="-5942.0972" y1="267.1318" x2="-5941.0972" y2="267.1318" gradientTransform="matrix(23.3476 0 0 23.345 138743.0781 -6215.0913)">
				<stop  offset="0" style="stop-color:#7C72FF"/>
				<stop  offset="1" style="stop-color:#6D64F4"/>
			</linearGradient>
			<path id="Fill-84" class="st4" d="M31.9,9.4c-11.7,1.9-20.8,11-22.7,22.7l0,0c0,0.2,0,0.3,0.1,0.5l0,0c0.1,0.1,0.3,0.2,0.4,0.2
				l0,0h16.8c0.2,0,0.4-0.1,0.5-0.3l0,0c1-2.3,2.8-4.1,5.1-5.1l0,0c0.2-0.1,0.3-0.3,0.3-0.5l0,0V10c0-0.2-0.1-0.3-0.2-0.4l0,0
				C32.3,9.5,32.1,9.4,31.9,9.4L31.9,9.4C32,9.4,31.9,9.4,31.9,9.4 M31.4,10.7v15.8c-2.3,1.1-4.1,2.9-5.2,5.2l0,0H10.5
				C12.5,20.9,20.8,12.6,31.4,10.7"/>
			<path id="Fill-87" class="st1" d="M26.6,40.8H9.8C11.6,52.2,20.6,61.2,32,63V46.2C29.6,45.2,27.7,43.2,26.6,40.8"/>
			<g id="Clip-90" class="st0">
			</g>
			
				<linearGradient id="Fill-89_1_" gradientUnits="userSpaceOnUse" x1="-5942.0972" y1="267.0962" x2="-5941.0972" y2="267.0962" gradientTransform="matrix(23.3476 0 0 23.348 138743.0781 -6184.2124)">
				<stop  offset="0" style="stop-color:#7C72FF"/>
				<stop  offset="1" style="stop-color:#6D64F4"/>
			</linearGradient>
			<path id="Fill-89" class="st5" d="M9.8,40.3c-0.2,0-0.3,0.1-0.4,0.2l0,0c-0.1,0.1-0.2,0.3-0.2,0.4l0,0
				c1.9,11.7,11,20.8,22.7,22.7l0,0H32l0,0c0.1,0,0.3,0,0.4-0.1l0,0c0.1-0.1,0.2-0.3,0.2-0.4l0,0V46.2c0-0.2-0.1-0.4-0.3-0.5l0,0
				c-2.3-1-4.1-2.8-5.1-5.1l0,0c-0.1-0.2-0.3-0.3-0.5-0.3l0,0C26.7,40.3,9.8,40.3,9.8,40.3z M10.5,41.4h15.8
				c1.1,2.3,2.9,4.1,5.2,5.2l0,0v15.8C20.8,60.4,12.5,52.1,10.5,41.4L10.5,41.4z"/>
			<path id="Fill-92" class="st1" d="M40.7,63.1c11.4-1.8,20.4-10.8,22.2-22.2H46.1c-1.1,2.4-3,4.3-5.4,5.4V63.1z"/>
			<g id="Clip-95" class="st0">
			</g>
			
				<linearGradient id="Fill-94_1_" gradientUnits="userSpaceOnUse" x1="-5942.0718" y1="267.0898" x2="-5941.0718" y2="267.0898" gradientTransform="matrix(23.3454 0 0 23.348 138760.0938 -6184.2124)">
				<stop  offset="0" style="stop-color:#7C72FF"/>
				<stop  offset="1" style="stop-color:#6D64F4"/>
			</linearGradient>
			<path id="Fill-94" class="st6" d="M46.1,40.3c-0.2,0-0.4,0.1-0.5,0.3l0,0c-1,2.3-2.8,4.1-5.1,5.1l0,0c-0.2,0.1-0.3,0.3-0.3,0.5
				l0,0V63c0,0.2,0.1,0.3,0.2,0.4l0,0c0.1,0.1,0.2,0.1,0.4,0.1l0,0h0.1l0,0c11.7-1.9,20.8-11,22.7-22.7l0,0c0-0.2,0-0.3-0.1-0.5l0,0
				c-0.1-0.1-0.3-0.2-0.4-0.2l0,0h-17V40.3z M41.2,46.6c2.3-1.1,4.1-2.9,5.2-5.2l0,0h15.8c-2,10.7-10.3,19-21,21l0,0V46.6z"/>
		</g>
	</g>
</g>
</svg>
