<?xml version="1.0" encoding="utf-8"?>
<!-- Generator: Adobe Illustrator 22.0.1, SVG Export Plug-In . SVG Version: 6.00 Build 0)  -->
<svg version="1.1" id="Capa_1" xmlns="http://www.w3.org/2000/svg" xmlns:xlink="http://www.w3.org/1999/xlink" x="0px" y="0px"
	 viewBox="0 0 181 163" style="enable-background:new 0 0 181 163;" xml:space="preserve">
<style type="text/css">
	.st0{fill:url(#Fill-3_1_);}
	.st1{fill:url(#Fill-23_1_);}
	.st2{fill:url(#Fill-26_1_);}
	.st3{fill:url(#Fill-29_1_);}
	.st4{fill:url(#Fill-32_1_);}
	.st5{fill:url(#Fill-35_1_);}
	.st6{fill:url(#Fill-38_1_);}
	.st7{fill:url(#Fill-41_1_);}
	.st8{fill:url(#Fill-44_1_);}
	.st9{fill:url(#Fill-49_1_);}
	.st10{fill:url(#Fill-54_1_);}
</style>
<title>element-camara</title>
<desc>Created with Sketch.</desc>
<g id="GIFOS">
	<g id="_x30_0-UI-Kit" transform="translate(-1032.000000, -2270.000000)">
		<g id="element-camara" transform="translate(1032.000000, 2270.000000)">
			<g>
				<g id="Clip-4">
				</g>
				
					<linearGradient id="Fill-3_1_" gradientUnits="userSpaceOnUse" x1="-3029.4409" y1="3190.782" x2="-3028.4409" y2="3190.782" gradientTransform="matrix(148.353 0 0 -76.103 449428.5938 242866.125)">
					<stop  offset="0" style="stop-color:#7C72FF"/>
					<stop  offset="1" style="stop-color:#6D64F4"/>
				</linearGradient>
				<path id="Fill-3" class="st0" d="M16.4,0C8.4,0,1.9,6.5,1.9,14.4l0,0v47.2c0,8,6.5,14.4,14.4,14.4l0,0h119.5
					c8,0,14.4-6.5,14.4-14.4l0,0V14.4c0-8-6.5-14.4-14.4-14.4l0,0H16.4z M4.1,61.7V14.4c0-6.8,5.5-12.3,12.3-12.3l0,0h119.5
					c6.8,0,12.3,5.5,12.3,12.3l0,0v47.2c0,6.8-5.5,12.3-12.3,12.3l0,0H16.4C9.6,73.9,4.1,68.4,4.1,61.7L4.1,61.7z"/>
				<g id="Clip-24">
				</g>
				
					<linearGradient id="Fill-23_1_" gradientUnits="userSpaceOnUse" x1="-2988.8362" y1="3004.1328" x2="-2987.8362" y2="3004.1328" gradientTransform="matrix(49.866 0 0 -13.514 149092.5 40678.5547)">
					<stop  offset="0" style="stop-color:#7C72FF"/>
					<stop  offset="1" style="stop-color:#6D64F4"/>
				</linearGradient>
				<path id="Fill-23" class="st1" d="M52.3,73.9c-0.6,0-1.1,0.5-1.1,1.1l0,0v0.5c0,6.6,5.4,12,12,12l0,0h25.9c6.6,0,12-5.4,12-12
					l0,0V75c0-0.6-0.5-1.1-1.1-1.1l0,0H52.3z M53.4,76.1h45.5c-0.3,5.1-4.6,9.2-9.8,9.2l0,0H63.2C58,85.3,53.7,81.2,53.4,76.1
					L53.4,76.1z"/>
				<g id="Clip-27">
				</g>
				
					<linearGradient id="Fill-26_1_" gradientUnits="userSpaceOnUse" x1="-1635.342" y1="3190.9019" x2="-1634.342" y2="3190.9019" gradientTransform="matrix(2.156 0 0 -76.33 3600.8411 243685.0156)">
					<stop  offset="0" style="stop-color:#7C72FF"/>
					<stop  offset="1" style="stop-color:#6D64F4"/>
				</linearGradient>
				<path id="Fill-26" class="st2" d="M75,86.4v74.2c0,0.6,0.5,1.1,1.1,1.1l0,0c0.6,0,1.1-0.5,1.1-1.1l0,0V86.4
					c0-0.6-0.5-1.1-1.1-1.1l0,0C75.5,85.3,75,85.8,75,86.4"/>
				<g id="Clip-30">
				</g>
				
					<linearGradient id="Fill-29_1_" gradientUnits="userSpaceOnUse" x1="-3010.4934" y1="3191.3577" x2="-3009.4934" y2="3191.3577" gradientTransform="matrix(77.2022 0 0 -77.206 232416.8594 246515.8594)">
					<stop  offset="0" style="stop-color:#7C72FF"/>
					<stop  offset="1" style="stop-color:#6D64F4"/>
				</linearGradient>
				<path id="Fill-29" class="st3" d="M75.4,85.6l-75,75.1c-0.4,0.4-0.4,1.1,0,1.5l0,0c0.2,0.2,0.5,0.3,0.8,0.3l0,0
					c0.3,0,0.6-0.1,0.8-0.3l0,0l75-75.1c0.4-0.4,0.4-1.1,0-1.5l0,0c-0.2-0.2-0.5-0.3-0.8-0.3l0,0C75.8,85.3,75.6,85.4,75.4,85.6"/>
				<g id="Clip-33">
				</g>
				
					<linearGradient id="Fill-32_1_" gradientUnits="userSpaceOnUse" x1="-3010.4934" y1="3191.3577" x2="-3009.4934" y2="3191.3577" gradientTransform="matrix(77.2025 0 0 -77.206 232492.6875 246515.8594)">
					<stop  offset="0" style="stop-color:#7C72FF"/>
					<stop  offset="1" style="stop-color:#6D64F4"/>
				</linearGradient>
				<path id="Fill-32" class="st4" d="M75.4,85.6c-0.4,0.4-0.4,1.1,0,1.5l0,0l75,75.1c0.2,0.2,0.5,0.3,0.8,0.3l0,0
					c0.3,0,0.6-0.1,0.8-0.3l0,0c0.4-0.4,0.4-1.1,0-1.5l0,0l-75-75.1c-0.2-0.2-0.5-0.3-0.8-0.3l0,0C75.8,85.3,75.6,85.4,75.4,85.6"/>
				<g id="Clip-36">
				</g>
				
					<linearGradient id="Fill-35_1_" gradientUnits="userSpaceOnUse" x1="-2977.2354" y1="2929.5391" x2="-2976.2354" y2="2929.5391" gradientTransform="matrix(41.916 0 0 -10.171 124809.4609 29855.5469)">
					<stop  offset="0" style="stop-color:#7C72FF"/>
					<stop  offset="1" style="stop-color:#6D64F4"/>
				</linearGradient>
				<path id="Fill-35" class="st5" d="M16.7,54.1c-0.6,0-1.1,0.5-1.1,1.1l0,0v8c0,0.6,0.5,1.1,1.1,1.1l0,0h39.8
					c0.6,0,1.1-0.5,1.1-1.1l0,0v-8c0-0.6-0.5-1.1-1.1-1.1l0,0H16.7z M17.8,62.1h37.6v-5.9H17.8V62.1z"/>
				<g id="Clip-39">
				</g>
				
					<linearGradient id="Fill-38_1_" gradientUnits="userSpaceOnUse" x1="-2755.1147" y1="2929.5391" x2="-2754.1147" y2="2929.5391" gradientTransform="matrix(10.343 0 0 -10.171 28558.2617 29855.5469)">
					<stop  offset="0" style="stop-color:#7C72FF"/>
					<stop  offset="1" style="stop-color:#6D64F4"/>
				</linearGradient>
				<path id="Fill-38" class="st6" d="M63.2,54.1c-0.6,0-1.1,0.5-1.1,1.1l0,0v8c0,0.6,0.5,1.1,1.1,1.1l0,0h8.2
					c0.6,0,1.1-0.5,1.1-1.1l0,0v-8c0-0.6-0.5-1.1-1.1-1.1l0,0H63.2z M64.3,62.1h6v-5.9h-6V62.1z"/>
				<g id="Clip-42">
				</g>
				
					<linearGradient id="Fill-41_1_" gradientUnits="userSpaceOnUse" x1="-2977.2354" y1="1808.5398" x2="-2976.2354" y2="1808.5398" gradientTransform="matrix(41.916 0 0 -2.156 124809.4609 3942.3838)">
					<stop  offset="0" style="stop-color:#7C72FF"/>
					<stop  offset="1" style="stop-color:#6D64F4"/>
				</linearGradient>
				<path id="Fill-41" class="st7" d="M16.7,42.1c-0.6,0-1.1,0.5-1.1,1.1l0,0c0,0.6,0.5,1.1,1.1,1.1l0,0h39.8c0.6,0,1.1-0.5,1.1-1.1
					l0,0c0-0.6-0.5-1.1-1.1-1.1l0,0H16.7z"/>
				<g id="Clip-45">
				</g>
				
					<linearGradient id="Fill-44_1_" gradientUnits="userSpaceOnUse" x1="-2996.2876" y1="1809.2014" x2="-2995.2876" y2="1809.2014" gradientTransform="matrix(56.784 0 0 -2.157 170156.875 3934.7109)">
					<stop  offset="0" style="stop-color:#7C72FF"/>
					<stop  offset="1" style="stop-color:#6D64F4"/>
				</linearGradient>
				<path id="Fill-44" class="st8" d="M16.7,31.2c-0.6,0-1.1,0.5-1.1,1.1l0,0c0,0.6,0.5,1.1,1.1,1.1l0,0h54.6c0.6,0,1.1-0.5,1.1-1.1
					l0,0c0-0.6-0.5-1.1-1.1-1.1l0,0H16.7z"/>
				<g id="Clip-50">
				</g>
				
					<linearGradient id="Fill-49_1_" gradientUnits="userSpaceOnUse" x1="-2899.189" y1="3167.9563" x2="-2898.189" y2="3167.9563" gradientTransform="matrix(20.224 0 0 -48.585 58785.625 153953.2188)">
					<stop  offset="0" style="stop-color:#7C72FF"/>
					<stop  offset="1" style="stop-color:#6D64F4"/>
				</linearGradient>
				<path id="Fill-49" class="st9" d="M171,13.9L153,24.3c-0.3,0.2-0.5,0.5-0.5,0.9l0,0v25.6c0,0.4,0.2,0.7,0.5,0.9l0,0L171,62.2
					c0.2,0.1,0.4,0.1,0.5,0.1l0,0c0.2,0,0.4,0,0.5-0.1l0,0c0.3-0.2,0.5-0.5,0.5-0.9l0,0V14.8c0-0.4-0.2-0.7-0.5-0.9l0,0
					c-0.2-0.1-0.4-0.1-0.5-0.1l0,0C171.4,13.8,171.2,13.8,171,13.9L171,13.9z M154.6,50.2V25.9l15.9-9.2v42.7L154.6,50.2z"/>
				<g id="Clip-55">
				</g>
				
					<linearGradient id="Fill-54_1_" gradientUnits="userSpaceOnUse" x1="-2735.6638" y1="3182.5789" x2="-2734.6638" y2="3182.5789" gradientTransform="matrix(9.703 0 0 -63.232 26714.6074 201278.8594)">
					<stop  offset="0" style="stop-color:#7C72FF"/>
					<stop  offset="1" style="stop-color:#6D64F4"/>
				</linearGradient>
				<path id="Fill-54" class="st10" d="M178.6,6.6l-7.5,4.4c-0.3,0.2-0.5,0.5-0.5,0.9l0,0v52.4c0,0.4,0.2,0.7,0.5,0.9l0,0l7.5,4.4
					c0.2,0.1,0.4,0.1,0.5,0.1l0,0c0.2,0,0.4,0,0.5-0.1l0,0c0.3-0.2,0.5-0.5,0.5-0.9l0,0V7.5c0-0.4-0.2-0.7-0.5-0.9l0,0
					c-0.2-0.1-0.4-0.1-0.5-0.1l0,0C178.9,6.4,178.7,6.5,178.6,6.6L178.6,6.6z M172.7,63.6V12.5l5.4-3.1v57.3L172.7,63.6z"/>
			</g>
		</g>
	</g>
</g>
</svg>
