<?xml version="1.0" encoding="utf-8"?>
<!-- Generator: Adobe Illustrator 22.0.1, SVG Export Plug-In . SVG Version: 6.00 Build 0)  -->
<svg version="1.1" id="Capa_1" xmlns="http://www.w3.org/2000/svg" xmlns:xlink="http://www.w3.org/1999/xlink" x="0px" y="0px"
	 viewBox="0 0 142 88" style="enable-background:new 0 0 142 88;" xml:space="preserve">
<style type="text/css">
	.st0{filter:url(#Adobe_OpacityMaskFilter);}
	.st1{fill:#FFFFFF;}
	.st2{mask:url(#mask-2_1_);fill:url(#Fill-1_1_);}
	.st3{filter:url(#Adobe_OpacityMaskFilter_1_);}
	.st4{mask:url(#mask-5_1_);fill:url(#Fill-6_1_);}
	.st5{filter:url(#Adobe_OpacityMaskFilter_2_);}
	.st6{mask:url(#mask-8_1_);fill:url(#Fill-11_1_);}
	.st7{filter:url(#Adobe_OpacityMaskFilter_3_);}
	.st8{mask:url(#mask-11_1_);fill:url(#Fill-16_1_);}
	.st9{filter:url(#Adobe_OpacityMaskFilter_4_);}
	.st10{mask:url(#mask-14_1_);fill:url(#Fill-21_1_);}
	.st11{filter:url(#Adobe_OpacityMaskFilter_5_);}
	.st12{mask:url(#mask-17_1_);fill:url(#Fill-26_1_);}
	.st13{filter:url(#Adobe_OpacityMaskFilter_6_);}
	.st14{mask:url(#mask-20_1_);fill:url(#Fill-31_1_);}
	.st15{filter:url(#Adobe_OpacityMaskFilter_7_);}
	.st16{mask:url(#mask-23_1_);fill:url(#Fill-36_1_);}
</style>
<title>pelicula</title>
<desc>Created with Sketch.</desc>
<g id="GIFOS">
	<g id="_x30_0-UI-Kit" transform="translate(-629.000000, -2335.000000)">
		<g id="pelicula" transform="translate(629.000000, 2335.000000)">
			<g id="Group-39">
				<g id="Group-3" transform="translate(73.840000, 43.403303)">
					<g id="Clip-2">
					</g>
					<defs>
						<filter id="Adobe_OpacityMaskFilter" filterUnits="userSpaceOnUse" x="13.2" y="0.1" width="54.6" height="44.2">
							<feColorMatrix  type="matrix" values="1 0 0 0 0  0 1 0 0 0  0 0 1 0 0  0 0 0 1 0"/>
						</filter>
					</defs>
					<mask maskUnits="userSpaceOnUse" x="13.2" y="0.1" width="54.6" height="44.2" id="mask-2_1_">
						<g class="st0">
							<path id="path-1_1_" class="st1" d="M0.7,0.1c-0.3,0-0.6,0.3-0.6,0.6l0,0c0,0.3,0.3,0.6,0.6,0.6l0,0h14.2
								c7.5,0,13.6,6.5,13.6,14.6l0,0v12.5c0,8.7,7.1,15.8,15.8,15.8l0,0h22.8c0.3,0,0.6-0.3,0.6-0.6l0,0c0-0.3-0.3-0.6-0.6-0.6l0,0
								H44.4c-8,0-14.6-6.5-14.6-14.6l0,0V15.9c0-8.7-6.7-15.8-14.8-15.8l0,0H0.7z"/>
						</g>
					</mask>
					
						<linearGradient id="Fill-1_1_" gradientUnits="userSpaceOnUse" x1="-3097.313" y1="3079.386" x2="-3096.5061" y2="3079.386" gradientTransform="matrix(67.6976 0 0 -44.172 209693.9844 136044.9063)">
						<stop  offset="0" style="stop-color:#7C72FF"/>
						<stop  offset="1" style="stop-color:#6D64F4"/>
					</linearGradient>
					<path id="Fill-1" class="st2" d="M13.2,1.4c0.1,0,2-0.1,2.1-0.1C22.6,1.5,28.6,8,28.6,15.9v12.5c0,8.7,7.1,15.8,15.8,15.8h22.8
						c0.3,0,0.6-0.3,0.6-0.6s-0.3-0.6-0.6-0.6H44.4c-8,0-14.6-6.5-14.6-14.6V15.9c0-8.6-6.5-15.6-14.5-15.8c-0.1,0-2,0-2.1,0V1.4z"
						/>
				</g>
				<g id="Group-8" transform="translate(0.000000, 0.254916)">
					<g id="Clip-7">
					</g>
					<defs>
						<filter id="Adobe_OpacityMaskFilter_1_" filterUnits="userSpaceOnUse" x="0" y="0.3" width="87.2" height="87.1">
							<feColorMatrix  type="matrix" values="1 0 0 0 0  0 1 0 0 0  0 0 1 0 0  0 0 0 1 0"/>
						</filter>
					</defs>
					<mask maskUnits="userSpaceOnUse" x="0" y="0.3" width="87.2" height="87.1" id="mask-5_1_">
						<g class="st3">
							<path id="path-4_1_" class="st1" d="M43.6,0.3C19.5,0.3,0,19.9,0,43.9l0,0c0,24,19.5,43.6,43.6,43.6l0,0
								c24,0,43.6-19.5,43.6-43.6l0,0C87.2,19.9,67.6,0.3,43.6,0.3z M1.2,43.9c0-23.3,19-42.3,42.4-42.3l0,0
								c23.4,0,42.4,19,42.4,42.3l0,0c0,23.3-19,42.3-42.4,42.3l0,0C20.2,86.2,1.2,67.2,1.2,43.9L1.2,43.9z M9.6,43.9
								c0,18.7,15.2,33.9,33.9,33.9l0,0c18.7,0,33.9-15.2,33.9-33.9l0,0c0-18.7-15.2-33.9-33.9-33.9l0,0C24.9,9.9,9.6,25.2,9.6,43.9
								L9.6,43.9z M10.9,43.9c0-18,14.7-32.7,32.7-32.7l0,0c18,0,32.7,14.7,32.7,32.7l0,0c0,18-14.7,32.7-32.7,32.7l0,0
								C25.5,76.6,10.9,61.9,10.9,43.9L10.9,43.9z"/>
						</g>
					</mask>
					
						<linearGradient id="Fill-6_1_" gradientUnits="userSpaceOnUse" x1="-3033.7891" y1="3157.187" x2="-3032.7891" y2="3157.187" gradientTransform="matrix(87.1602 0 0 -87.1194 264425.5625 275096.2188)">
						<stop  offset="0" style="stop-color:#7C72FF"/>
						<stop  offset="1" style="stop-color:#6D64F4"/>
					</linearGradient>
					<path id="Fill-6" class="st4" d="M43.6,0.3C19.5,0.3,0,19.9,0,43.9l0,0c0,24,19.5,43.6,43.6,43.6l0,0c24,0,43.6-19.5,43.6-43.6
						l0,0C87.2,19.9,67.6,0.3,43.6,0.3z M1.2,43.9c0-23.3,19-42.3,42.4-42.3l0,0c23.4,0,42.4,19,42.4,42.3l0,0
						c0,23.3-19,42.3-42.4,42.3l0,0C20.2,86.2,1.2,67.2,1.2,43.9L1.2,43.9z M9.6,43.9c0,18.7,15.2,33.9,33.9,33.9l0,0
						c18.7,0,33.9-15.2,33.9-33.9l0,0c0-18.7-15.2-33.9-33.9-33.9l0,0C24.9,9.9,9.6,25.2,9.6,43.9L9.6,43.9z M10.9,43.9
						c0-18,14.7-32.7,32.7-32.7l0,0c18,0,32.7,14.7,32.7,32.7l0,0c0,18-14.7,32.7-32.7,32.7l0,0C25.5,76.6,10.9,61.9,10.9,43.9
						L10.9,43.9z"/>
				</g>
				<g id="Group-13" transform="translate(9.088000, 9.906529)">
					<g id="Clip-12">
					</g>
					<defs>
						<filter id="Adobe_OpacityMaskFilter_2_" filterUnits="userSpaceOnUse" x="0.5" y="0.3" width="67.9" height="67.9">
							<feColorMatrix  type="matrix" values="1 0 0 0 0  0 1 0 0 0  0 0 1 0 0  0 0 0 1 0"/>
						</filter>
					</defs>
					<mask maskUnits="userSpaceOnUse" x="0.5" y="0.3" width="67.9" height="67.9" id="mask-8_1_">
						<g class="st5">
							<path id="path-7_1_" class="st1" d="M0.5,34.2c0,18.7,15.2,33.9,33.9,33.9l0,0c18.7,0,33.9-15.2,33.9-33.9l0,0
								c0-18.7-15.2-33.9-33.9-33.9l0,0C15.8,0.3,0.5,15.5,0.5,34.2L0.5,34.2z M1.8,34.2c0-18,14.7-32.7,32.7-32.7l0,0
								c18,0,32.7,14.7,32.7,32.7l0,0c0,18-14.7,32.7-32.7,32.7l0,0C16.4,66.9,1.8,52.3,1.8,34.2L1.8,34.2z M38.7,5.3
								c-0.1,0.1-0.2,0.3-0.2,0.5l0,0v18.1c0,0.2,0.1,0.5,0.4,0.6l0,0c2.4,1.1,4.4,3,5.5,5.5l0,0c0.1,0.2,0.3,0.4,0.6,0.4l0,0H63
								c0.2,0,0.3-0.1,0.5-0.2l0,0c0.1-0.1,0.2-0.3,0.1-0.5l0,0c-2-12.6-11.8-22.3-24.4-24.3l0,0c0,0-0.1,0-0.1,0l0,0
								C39,5.1,38.8,5.2,38.7,5.3L38.7,5.3z M39.7,23.4V6.5c11.5,2.1,20.4,11,22.5,22.5l0,0H45.3C44.1,26.5,42.2,24.6,39.7,23.4
								L39.7,23.4z M29.7,5.2C17.2,7.2,7.4,16.9,5.4,29.5l0,0c0,0.2,0,0.4,0.1,0.5l0,0c0.1,0.1,0.3,0.2,0.5,0.2l0,0H24
								c0.2,0,0.5-0.1,0.6-0.4l0,0c1.1-2.4,3-4.4,5.5-5.5l0,0c0.2-0.1,0.4-0.3,0.4-0.6l0,0V5.8c0-0.2-0.1-0.3-0.2-0.5l0,0
								C30.1,5.2,30,5.1,29.7,5.2L29.7,5.2C29.8,5.1,29.8,5.1,29.7,5.2L29.7,5.2z M29.2,6.5v16.9c-2.4,1.2-4.4,3.1-5.6,5.6l0,0H6.7
								C8.8,17.5,17.7,8.6,29.2,6.5L29.2,6.5z M26.4,34.2c0,4.4,3.6,8.1,8.1,8.1l0,0c4.4,0,8.1-3.6,8.1-8.1l0,0
								c0-4.4-3.6-8.1-8.1-8.1l0,0C30,26.2,26.4,29.8,26.4,34.2L26.4,34.2z M27.6,34.2c0-3.8,3.1-6.8,6.8-6.8l0,0
								c3.8,0,6.8,3.1,6.8,6.8l0,0c0,3.8-3.1,6.8-6.8,6.8l0,0C30.7,41.1,27.6,38,27.6,34.2L27.6,34.2z M44.9,38.3
								c-0.2,0-0.5,0.1-0.6,0.4l0,0c-1.1,2.4-3,4.4-5.5,5.5l0,0c-0.2,0.1-0.4,0.3-0.4,0.6l0,0v18.1c0,0.2,0.1,0.4,0.2,0.5l0,0
								c0.1,0.1,0.3,0.1,0.4,0.1l0,0c0,0,0.1,0,0.1,0l0,0c12.6-2,22.3-11.8,24.4-24.3l0,0c0-0.2,0-0.4-0.1-0.5l0,0
								c-0.1-0.1-0.3-0.2-0.5-0.2l0,0H44.9z M39.7,45.1c2.4-1.2,4.4-3.1,5.6-5.6l0,0h16.9C60.1,51,51.2,59.9,39.7,62l0,0V45.1z
								 M6,38.3c-0.2,0-0.3,0.1-0.5,0.2l0,0c-0.1,0.1-0.2,0.3-0.1,0.5l0,0c2,12.6,11.8,22.3,24.4,24.3l0,0c0,0,0.1,0,0.1,0l0,0
								c0.1,0,0.3-0.1,0.4-0.1l0,0c0.1-0.1,0.2-0.3,0.2-0.5l0,0V44.7c0-0.2-0.1-0.5-0.4-0.6l0,0c-2.4-1.1-4.4-3-5.5-5.5l0,0
								c-0.1-0.2-0.3-0.4-0.6-0.4l0,0H6z M6.7,39.5h16.9c1.2,2.4,3.1,4.4,5.6,5.6l0,0V62C17.7,59.9,8.8,51,6.7,39.5L6.7,39.5z"/>
						</g>
					</mask>
					
						<linearGradient id="Fill-11_1_" gradientUnits="userSpaceOnUse" x1="-3032.8845" y1="3137.4241" x2="-3031.8845" y2="3137.4241" gradientTransform="matrix(67.893 0 0 -67.8656 205912.2813 212957.375)">
						<stop  offset="0" style="stop-color:#7C72FF"/>
						<stop  offset="1" style="stop-color:#6D64F4"/>
					</linearGradient>
					<path id="Fill-11" class="st6" d="M0.5,34.2c0,18.7,15.2,33.9,33.9,33.9l0,0c18.7,0,33.9-15.2,33.9-33.9l0,0
						c0-18.7-15.2-33.9-33.9-33.9l0,0C15.8,0.3,0.5,15.5,0.5,34.2L0.5,34.2z M1.8,34.2c0-18,14.7-32.7,32.7-32.7l0,0
						c18,0,32.7,14.7,32.7,32.7l0,0c0,18-14.7,32.7-32.7,32.7l0,0C16.4,66.9,1.8,52.3,1.8,34.2L1.8,34.2z M38.7,5.3
						c-0.1,0.1-0.2,0.3-0.2,0.5l0,0v18.1c0,0.2,0.1,0.5,0.4,0.6l0,0c2.4,1.1,4.4,3,5.5,5.5l0,0c0.1,0.2,0.3,0.4,0.6,0.4l0,0H63
						c0.2,0,0.3-0.1,0.5-0.2l0,0c0.1-0.1,0.2-0.3,0.1-0.5l0,0c-2-12.6-11.8-22.3-24.4-24.3l0,0c0,0-0.1,0-0.1,0l0,0
						C39,5.1,38.8,5.2,38.7,5.3L38.7,5.3z M39.7,23.4V6.5c11.5,2.1,20.4,11,22.5,22.5l0,0H45.3C44.1,26.5,42.2,24.6,39.7,23.4
						L39.7,23.4z M29.7,5.2C17.2,7.2,7.4,16.9,5.4,29.5l0,0c0,0.2,0,0.4,0.1,0.5l0,0c0.1,0.1,0.3,0.2,0.5,0.2l0,0H24
						c0.2,0,0.5-0.1,0.6-0.4l0,0c1.1-2.4,3-4.4,5.5-5.5l0,0c0.2-0.1,0.4-0.3,0.4-0.6l0,0V5.8c0-0.2-0.1-0.3-0.2-0.5l0,0
						C30.1,5.2,30,5.1,29.7,5.2L29.7,5.2C29.8,5.1,29.8,5.1,29.7,5.2L29.7,5.2z M29.2,6.5v16.9c-2.4,1.2-4.4,3.1-5.6,5.6l0,0H6.7
						C8.8,17.5,17.7,8.6,29.2,6.5L29.2,6.5z M26.4,34.2c0,4.4,3.6,8.1,8.1,8.1l0,0c4.4,0,8.1-3.6,8.1-8.1l0,0c0-4.4-3.6-8.1-8.1-8.1
						l0,0C30,26.2,26.4,29.8,26.4,34.2L26.4,34.2z M27.6,34.2c0-3.8,3.1-6.8,6.8-6.8l0,0c3.8,0,6.8,3.1,6.8,6.8l0,0
						c0,3.8-3.1,6.8-6.8,6.8l0,0C30.7,41.1,27.6,38,27.6,34.2L27.6,34.2z M44.9,38.3c-0.2,0-0.5,0.1-0.6,0.4l0,0
						c-1.1,2.4-3,4.4-5.5,5.5l0,0c-0.2,0.1-0.4,0.3-0.4,0.6l0,0v18.1c0,0.2,0.1,0.4,0.2,0.5l0,0c0.1,0.1,0.3,0.1,0.4,0.1l0,0
						c0,0,0.1,0,0.1,0l0,0c12.6-2,22.3-11.8,24.4-24.3l0,0c0-0.2,0-0.4-0.1-0.5l0,0c-0.1-0.1-0.3-0.2-0.5-0.2l0,0H44.9z M39.7,45.1
						c2.4-1.2,4.4-3.1,5.6-5.6l0,0h16.9C60.1,51,51.2,59.9,39.7,62l0,0V45.1z M6,38.3c-0.2,0-0.3,0.1-0.5,0.2l0,0
						c-0.1,0.1-0.2,0.3-0.1,0.5l0,0c2,12.6,11.8,22.3,24.4,24.3l0,0c0,0,0.1,0,0.1,0l0,0c0.1,0,0.3-0.1,0.4-0.1l0,0
						c0.1-0.1,0.2-0.3,0.2-0.5l0,0V44.7c0-0.2-0.1-0.5-0.4-0.6l0,0c-2.4-1.1-4.4-3-5.5-5.5l0,0c-0.1-0.2-0.3-0.4-0.6-0.4l0,0H6z
						 M6.7,39.5h16.9c1.2,2.4,3.1,4.4,5.6,5.6l0,0V62C17.7,59.9,8.8,51,6.7,39.5L6.7,39.5z"/>
				</g>
				<g id="Group-18" transform="translate(35.216000, 36.022658)">
					<g id="Clip-17">
					</g>
					<defs>
						<filter id="Adobe_OpacityMaskFilter_3_" filterUnits="userSpaceOnUse" x="0.3" y="0" width="16.1" height="16.1">
							<feColorMatrix  type="matrix" values="1 0 0 0 0  0 1 0 0 0  0 0 1 0 0  0 0 0 1 0"/>
						</filter>
					</defs>
					<mask maskUnits="userSpaceOnUse" x="0.3" y="0" width="16.1" height="16.1" id="mask-11_1_">
						<g class="st7">
							<path id="path-10_1_" class="st1" d="M0.3,8.1c0,4.4,3.6,8.1,8.1,8.1l0,0c4.4,0,8.1-3.6,8.1-8.1l0,0c0-4.4-3.6-8.1-8.1-8.1
								l0,0C3.9,0,0.3,3.7,0.3,8.1 M1.5,8.1c0-3.8,3.1-6.8,6.8-6.8l0,0c3.8,0,6.8,3.1,6.8,6.8l0,0c0,3.8-3.1,6.8-6.8,6.8l0,0
								C4.6,14.9,1.5,11.9,1.5,8.1"/>
						</g>
					</mask>
					
						<linearGradient id="Fill-16_1_" gradientUnits="userSpaceOnUse" x1="-2914.0239" y1="2964.5427" x2="-2913.0239" y2="2964.5427" gradientTransform="matrix(16.1363 0 0 -16.1284 47021.8906 47821.4688)">
						<stop  offset="0" style="stop-color:#7C72FF"/>
						<stop  offset="1" style="stop-color:#6D64F4"/>
					</linearGradient>
					<path id="Fill-16" class="st8" d="M0.3,8.1c0,4.4,3.6,8.1,8.1,8.1l0,0c4.4,0,8.1-3.6,8.1-8.1l0,0c0-4.4-3.6-8.1-8.1-8.1l0,0
						C3.9,0,0.3,3.7,0.3,8.1 M1.5,8.1c0-3.8,3.1-6.8,6.8-6.8l0,0c3.8,0,6.8,3.1,6.8,6.8l0,0c0,3.8-3.1,6.8-6.8,6.8l0,0
						C4.6,14.9,1.5,11.9,1.5,8.1"/>
				</g>
				<g id="Group-23" transform="translate(47.144000, 15.016206)">
					<g id="Clip-22">
					</g>
					<defs>
						<filter id="Adobe_OpacityMaskFilter_4_" filterUnits="userSpaceOnUse" x="0.5" y="0" width="25.1" height="25.1">
							<feColorMatrix  type="matrix" values="1 0 0 0 0  0 1 0 0 0  0 0 1 0 0  0 0 0 1 0"/>
						</filter>
					</defs>
					<mask maskUnits="userSpaceOnUse" x="0.5" y="0" width="25.1" height="25.1" id="mask-14_1_">
						<g class="st9">
							<path id="path-13_1_" class="st1" d="M0.7,0.2C0.5,0.3,0.5,0.5,0.5,0.6l0,0v18.1c0,0.2,0.1,0.5,0.4,0.6l0,0
								c2.4,1.1,4.4,3,5.5,5.5l0,0c0.1,0.2,0.3,0.4,0.6,0.4l0,0h18.1c0.2,0,0.3-0.1,0.5-0.2l0,0c0.1-0.1,0.2-0.3,0.1-0.5l0,0
								C23.5,11.8,13.7,2,1.2,0l0,0c0,0-0.1,0-0.1,0l0,0C0.9,0,0.8,0.1,0.7,0.2 M1.7,18.3V1.4c11.5,2.1,20.4,11,22.5,22.5l0,0H7.2
								C6.1,21.4,4.1,19.5,1.7,18.3"/>
						</g>
					</mask>
					
						<linearGradient id="Fill-21_1_" gradientUnits="userSpaceOnUse" x1="-2993.74" y1="3054.1672" x2="-2992.74" y2="3054.1672" gradientTransform="matrix(25.0727 0 0 -25.0607 75061.6328 76552.125)">
						<stop  offset="0" style="stop-color:#7C72FF"/>
						<stop  offset="1" style="stop-color:#6D64F4"/>
					</linearGradient>
					<path id="Fill-21" class="st10" d="M0.7,0.2C0.5,0.3,0.5,0.5,0.5,0.6l0,0v18.1c0,0.2,0.1,0.5,0.4,0.6l0,0
						c2.4,1.1,4.4,3,5.5,5.5l0,0c0.1,0.2,0.3,0.4,0.6,0.4l0,0h18.1c0.2,0,0.3-0.1,0.5-0.2l0,0c0.1-0.1,0.2-0.3,0.1-0.5l0,0
						C23.5,11.8,13.7,2,1.2,0l0,0c0,0-0.1,0-0.1,0l0,0C0.9,0,0.8,0.1,0.7,0.2 M1.7,18.3V1.4c11.5,2.1,20.4,11,22.5,22.5l0,0H7.2
						C6.1,21.4,4.1,19.5,1.7,18.3"/>
				</g>
				<g id="Group-28" transform="translate(14.200000, 15.016206)">
					<g id="Clip-27">
					</g>
					<defs>
						<filter id="Adobe_OpacityMaskFilter_5_" filterUnits="userSpaceOnUse" x="0.2" y="0" width="25.1" height="25.1">
							<feColorMatrix  type="matrix" values="1 0 0 0 0  0 1 0 0 0  0 0 1 0 0  0 0 0 1 0"/>
						</filter>
					</defs>
					<mask maskUnits="userSpaceOnUse" x="0.2" y="0" width="25.1" height="25.1" id="mask-17_1_">
						<g class="st11">
							<path id="path-16_1_" class="st1" d="M24.6,0C12,2,2.3,11.8,0.2,24.4l0,0c0,0.2,0,0.4,0.1,0.5l0,0c0.1,0.1,0.3,0.2,0.5,0.2
								l0,0h18.1c0.2,0,0.5-0.1,0.6-0.4l0,0c1.1-2.4,3-4.4,5.5-5.5l0,0c0.2-0.1,0.4-0.3,0.4-0.6l0,0V0.6c0-0.2-0.1-0.3-0.2-0.5l0,0
								C25,0.1,24.8,0,24.6,0L24.6,0C24.7,0,24.6,0,24.6,0 M24.1,1.4v16.9c-2.4,1.2-4.4,3.1-5.6,5.6l0,0H1.6
								C3.7,12.4,12.6,3.5,24.1,1.4"/>
						</g>
					</mask>
					
						<linearGradient id="Fill-26_1_" gradientUnits="userSpaceOnUse" x1="-2960.8008" y1="3054.1672" x2="-2959.8008" y2="3054.1672" gradientTransform="matrix(25.0737 0 0 -25.0607 74238.4375 76552.125)">
						<stop  offset="0" style="stop-color:#7C72FF"/>
						<stop  offset="1" style="stop-color:#6D64F4"/>
					</linearGradient>
					<path id="Fill-26" class="st12" d="M24.6,0C12,2,2.3,11.8,0.2,24.4l0,0c0,0.2,0,0.4,0.1,0.5l0,0c0.1,0.1,0.3,0.2,0.5,0.2l0,0
						h18.1c0.2,0,0.5-0.1,0.6-0.4l0,0c1.1-2.4,3-4.4,5.5-5.5l0,0c0.2-0.1,0.4-0.3,0.4-0.6l0,0V0.6c0-0.2-0.1-0.3-0.2-0.5l0,0
						C25,0.1,24.8,0,24.6,0L24.6,0C24.7,0,24.6,0,24.6,0 M24.1,1.4v16.9c-2.4,1.2-4.4,3.1-5.6,5.6l0,0H1.6
						C3.7,12.4,12.6,3.5,24.1,1.4"/>
				</g>
				<g id="Group-33" transform="translate(14.200000, 47.945239)">
					<g id="Clip-32">
					</g>
					<defs>
						<filter id="Adobe_OpacityMaskFilter_6_" filterUnits="userSpaceOnUse" x="0.2" y="0.2" width="25.1" height="25.1">
							<feColorMatrix  type="matrix" values="1 0 0 0 0  0 1 0 0 0  0 0 1 0 0  0 0 0 1 0"/>
						</filter>
					</defs>
					<mask maskUnits="userSpaceOnUse" x="0.2" y="0.2" width="25.1" height="25.1" id="mask-20_1_">
						<g class="st13">
							<path id="path-19_1_" class="st1" d="M0.9,0.2c-0.2,0-0.3,0.1-0.5,0.2l0,0C0.3,0.6,0.2,0.8,0.2,1l0,0
								c2,12.6,11.8,22.3,24.4,24.3l0,0c0,0,0.1,0,0.1,0l0,0c0.1,0,0.3-0.1,0.4-0.1l0,0c0.1-0.1,0.2-0.3,0.2-0.5l0,0V6.6
								c0-0.2-0.1-0.5-0.4-0.6l0,0c-2.4-1.1-4.4-3-5.5-5.5l0,0c-0.1-0.2-0.3-0.4-0.6-0.4l0,0H0.9z M1.6,1.5h16.9
								c1.2,2.4,3.1,4.4,5.6,5.6l0,0V24C12.6,21.8,3.7,12.9,1.6,1.5L1.6,1.5z"/>
						</g>
					</mask>
					
						<linearGradient id="Fill-31_1_" gradientUnits="userSpaceOnUse" x1="-2960.8008" y1="3021.2466" x2="-2959.8008" y2="3021.2466" gradientTransform="matrix(25.0737 0 0 -25.0624 74238.4375 75732.4688)">
						<stop  offset="0" style="stop-color:#7C72FF"/>
						<stop  offset="1" style="stop-color:#6D64F4"/>
					</linearGradient>
					<path id="Fill-31" class="st14" d="M0.9,0.2c-0.2,0-0.3,0.1-0.5,0.2l0,0C0.3,0.6,0.2,0.8,0.2,1l0,0c2,12.6,11.8,22.3,24.4,24.3
						l0,0c0,0,0.1,0,0.1,0l0,0c0.1,0,0.3-0.1,0.4-0.1l0,0c0.1-0.1,0.2-0.3,0.2-0.5l0,0V6.6c0-0.2-0.1-0.5-0.4-0.6l0,0
						c-2.4-1.1-4.4-3-5.5-5.5l0,0c-0.1-0.2-0.3-0.4-0.6-0.4l0,0H0.9z M1.6,1.5h16.9c1.2,2.4,3.1,4.4,5.6,5.6l0,0V24
						C12.6,21.8,3.7,12.9,1.6,1.5L1.6,1.5z"/>
				</g>
				<g id="Group-38" transform="translate(47.144000, 47.945239)">
					<g id="Clip-37">
					</g>
					<defs>
						<filter id="Adobe_OpacityMaskFilter_7_" filterUnits="userSpaceOnUse" x="0.5" y="0.2" width="25.1" height="25.1">
							<feColorMatrix  type="matrix" values="1 0 0 0 0  0 1 0 0 0  0 0 1 0 0  0 0 0 1 0"/>
						</filter>
					</defs>
					<mask maskUnits="userSpaceOnUse" x="0.5" y="0.2" width="25.1" height="25.1" id="mask-23_1_">
						<g class="st15">
							<path id="path-22_1_" class="st1" d="M6.8,0.2c-0.2,0-0.5,0.1-0.6,0.4l0,0C5.2,3.1,3.3,5,0.8,6.1l0,0
								C0.6,6.2,0.5,6.4,0.5,6.6l0,0v18.1c0,0.2,0.1,0.4,0.2,0.5l0,0c0.1,0.1,0.3,0.1,0.4,0.1l0,0c0,0,0.1,0,0.1,0l0,0
								c12.6-2,22.3-11.8,24.4-24.3l0,0c0-0.2,0-0.4-0.1-0.5l0,0c-0.1-0.1-0.3-0.2-0.5-0.2l0,0H6.8z M1.7,7c2.4-1.2,4.4-3.1,5.6-5.6
								l0,0h16.9C22.1,12.9,13.1,21.8,1.7,24l0,0V7z"/>
						</g>
					</mask>
					
						<linearGradient id="Fill-36_1_" gradientUnits="userSpaceOnUse" x1="-2993.74" y1="3021.2466" x2="-2992.74" y2="3021.2466" gradientTransform="matrix(25.0727 0 0 -25.0624 75061.6328 75732.4688)">
						<stop  offset="0" style="stop-color:#7C72FF"/>
						<stop  offset="1" style="stop-color:#6D64F4"/>
					</linearGradient>
					<path id="Fill-36" class="st16" d="M6.8,0.2c-0.2,0-0.5,0.1-0.6,0.4l0,0C5.2,3.1,3.3,5,0.8,6.1l0,0C0.6,6.2,0.5,6.4,0.5,6.6
						l0,0v18.1c0,0.2,0.1,0.4,0.2,0.5l0,0c0.1,0.1,0.3,0.1,0.4,0.1l0,0c0,0,0.1,0,0.1,0l0,0c12.6-2,22.3-11.8,24.4-24.3l0,0
						c0-0.2,0-0.4-0.1-0.5l0,0c-0.1-0.1-0.3-0.2-0.5-0.2l0,0H6.8z M1.7,7c2.4-1.2,4.4-3.1,5.6-5.6l0,0h16.9
						C22.1,12.9,13.1,21.8,1.7,24l0,0V7z"/>
				</g>
			</g>
		</g>
	</g>
</g>
</svg>
